# xmcd
#
# Track frame offsets:
#	150
#	23019
#	48814
#	80983
#	114570
#	143945
#	163982
#	196212
#	219762
#	261244
#	283103
#	305508
#
# Disc length: 4429
#
# Revision: 1
# Processed by: cddbd v1.5.1PL0 Copyright (c) Steve Scherf et al.
# Submitted via: Axialis_AX_CDPlayer 2.6
# Normalized: r0:DSETVAR1
#
DISCID=ad114b0c
DTITLE=Various Artist - Fresh Blues
DYEAR=1900
DGENRE=
TTITLE0=Remembering love - Cadillac Blues Band
TTITLE1=It hurts me too - Dave Kelly Band
TTITLE2=Sky is crying - Joanna Connor Band
TTITLE3=The thrill is gone - Farlow - Davis - York
TTITLE4=Don't worry about me - Chicken Shack
TTITLE5=Silent night - Blues Company
TTITLE6=Breaking up somebody's home - Bernard Allison
TTITLE7=Old rain - Blues company
TTITLE8=Message to man - Guitar Crusher
TTITLE9=Cold, cold feeling - Johnny Heartsman
TTITLE10=20th Century of history - Killimandjaro-Soul-Blues-Band
TTITLE11=Moon is rising - Pretty Things
EXTD=
EXTT0=
EXTT1=
EXTT2=
EXTT3=
EXTT4=
EXTT5=
EXTT6=
EXTT7=
EXTT8=
EXTT9=
EXTT10=
EXTT11=
PLAYORDER=
